#!OML:ASF E:\emotionWalksFemale\Project 1\Capture day 1\Session 1\Female1.ASF
:FULLY-SPECIFIED
:DEGREES
1
root 6.88525 15.1035 41.2001 176.379 15.4796 -179.751
lowerback 3.35591 -1.44157 -2.28238
upperback -8.73271 -1.48107 1.30934
thorax -11.1151 -0.217933 2.8307
lowerneck -12.8091 -4.16553 -4.91012
upperneck 33.4089 -5.61783 9.88457
head 13.9579 -0.703419 4.2493
rclavicle 1.86858e-014 2.127e-014
rhumerus 34.5958 32.79 -27.1189
rradius 33.0782
rwrist 6.0253
rhand -12.306 -77.8723
rfingers 7.12502
rthumb -166.238 -72.6029
lclavicle 1.86858e-014 2.127e-014
lhumerus 17.0182 -14.0737 51.3153
lradius 40.0193
lwrist -22.8921
lhand -5.01294 -32.021
lfingers 7.12502
lthumb 20.781 -3.11378
rfemur -3.80712 25.5029 22.1031
rtibia 27.8025
rfoot -24.2346 -27.6051
rtoes -0.207599
lfemur -0.192006 -20.9112 -27.0177
ltibia 28.7328
lfoot -30.367 22.8875
ltoes -13.2954
2
root 6.87905 15.1007 41.1999 176.267 15.5645 -179.755
lowerback 3.28936 -1.40912 -2.36519
upperback -8.70131 -1.44728 1.29613
thorax -11.0397 -0.198378 2.85645
lowerneck -13.0606 -4.16409 -4.52485
upperneck 33.3268 -5.57437 9.27135
head 13.934 -0.737751 3.92024
rclavicle -3.51849e-014 3.97569e-016
rhumerus 33.4668 30.8318 -29.9827
rradius 31.7918
rwrist 9.08288
rhand -4.45812 -57.8434
rfingers 7.12502
rthumb -158.686 93.3086
lclavicle -3.51849e-014 3.97569e-016
lhumerus 20.9503 -18.2633 50.1327
lradius 33.3612
lwrist -19.3359
lhand -8.44319 -31.3171
lfingers 7.12502
lthumb 17.4824 -2.08317
rfemur -3.69643 25.4518 22.1202
rtibia 27.8573
rfoot -24.2832 -27.5212
rtoes -0.159281
lfemur -0.0154005 -20.8534 -27.0961
ltibia 28.6782
lfoot -30.4424 22.72
ltoes -14.0638
3
root 6.87347 15.1013 41.1996 176.304 15.6528 -179.601
lowerback 3.16261 -1.42727 -2.24743
upperback -8.71941 -1.45257 1.30079
thorax -10.9849 -0.209617 2.79254
lowerneck -13.4161 -4.26269 -4.61779
upperneck 33.3837 -5.73255 9.28429
head 14.0597 -0.81837 3.91891
rclavicle 5.74488e-014 2.14687e-014
rhumerus 32.5348 29.05 -32.6457
rradius 30.7475
rwrist 11.6796
rhand -4.40634 -57.502
rfingers 7.12502
rthumb -158.636 93.6557
lclavicle 5.74488e-014 2.14687e-014
lhumerus 22.8843 -21.7107 47.8583
lradius 31.0744
lwrist -15.3931
lhand -9.69594 -30.6632
lfingers 7.12502
lthumb 16.2764 -1.32634
rfemur -3.67095 25.4945 22.2688
rtibia 27.8003
rfoot -24.1817 -27.476
rtoes -0.432464
lfemur -0.00938068 -20.822 -26.9527
ltibia 28.7079
lfoot -30.5071 22.5933
ltoes -15.1297
4
root 6.86783 15.1 41.1998 176.278 15.7634 -179.465
lowerback 3.11416 -1.42614 -2.12884
upperback -8.73713 -1.43862 1.27612
thorax -10.9793 -0.213082 2.69659
lowerneck -13.6666 -4.29949 -4.70342
upperneck 33.3995 -5.82993 9.42777
head 14.1431 -0.852563 3.97885
rclavicle 5.30755e-014 2.98177e-014
rhumerus 31.6609 27.3732 -35.1367
rradius 29.8768
rwrist 14.0472
rhand -5.39532 -57.8189
rfingers 7.12502
rthumb -159.586 93.2341
lclavicle 5.30755e-014 2.98177e-014
lhumerus 22.6509 -21.4359 48.1846
lradius 30.9696
lwrist -15.7794
lhand -9.7538 -30.6897
lfingers 7.12502
lthumb 16.2207 -1.34832
rfemur -3.63819 25.4796 22.4097
rtibia 27.8074
rfoot -24.1759 -27.37
rtoes -0.775289
lfemur 0.0696216 -20.6817 -26.8227
ltibia 28.6925
lfoot -30.4641 22.5647
ltoes -16.4846
5
root 6.86164 15.0975 41.1987 176.237 15.9085 -179.461
lowerback 2.99321 -1.39329 -2.12749
upperback -8.76034 -1.39218 1.21371
thorax -10.9363 -0.192586 2.61986
lowerneck -13.6892 -4.30146 -4.86249
upperneck 33.1837 -5.90139 9.72183
head 14.0768 -0.879237 4.10409
rclavicle 3.02153e-014 1.37161e-014
rhumerus 30.7597 25.5718 -37.6756
rradius 28.9838
rwrist 16.4854
rhand -6.39183 -56.3722
rfingers 7.12502
rthumb -160.544 94.5812
lclavicle 3.02153e-014 1.37161e-014
lhumerus 22.5788 -20.8742 48.7647
lradius 30.6897
lwrist -16.6534
lhand -9.86857 -30.8516
lfingers 7.12502
lthumb 16.1102 -1.50126
rfemur -3.635 25.5121 22.3955
rtibia 27.8164
rfoot -24.1186 -27.3713
rtoes -0.687352
lfemur 0.202889 -21.3912 -27.0624
ltibia 28.6773
lfoot -30.6107 23.245
ltoes -14.9792
6
root 6.85388 15.094 41.1982 176.236 16.053 -179.452
lowerback 2.85369 -1.36453 -2.10883
upperback -8.8205 -1.34097 1.17735
thorax -10.924 -0.166345 2.56085
lowerneck -13.5628 -4.31456 -5.06338
upperneck 32.9016 -5.94865 9.92672
head 13.9426 -0.919682 4.19822
rclavicle -1.56046e-014 -3.57812e-015
rhumerus 29.4038 21.4061 -42.6468
rradius 27.0072
rwrist 22.1344
rhand -6.77548 -54.2974
rfingers 7.12502
rthumb -160.913 96.6191
lclavicle -1.56046e-014 -3.57812e-015
lhumerus 22.4141 -20.1749 49.5611
lradius 30.3554
lwrist -17.722
lhand -9.73505 -31.1403
lfingers 7.12502
lthumb 16.2388 -1.80035
rfemur -3.70842 25.5318 22.3581
rtibia 27.8794
rfoot -23.9926 -27.4059
rtoes -0.733598
lfemur 0.616368 -23.7914 -27.7993
ltibia 28.6187
lfoot -31.634 24.985
ltoes -11.7215
7
root 6.84917 15.0926 41.1992 176.105 16.1434 -179.485
lowerback 2.86381 -1.37569 -2.2572
upperback -8.83971 -1.36426 1.20931
thorax -10.9472 -0.161627 2.68163
lowerneck -13.533 -4.32643 -5.21731
upperneck 32.754 -5.91966 9.82858
head 13.8677 -0.959089 4.17693
rclavicle 9.54166e-015 -4.17448e-015
rhumerus 29.312 21.1081 -43.2196
rradius 26.8033
rwrist 22.7146
rhand -6.34738 -53.3279
rfingers 7.12502
rthumb -160.502 97.6298
lclavicle 9.54166e-015 -4.17448e-015
lhumerus 22.0802 -19.1167 50.6309
lradius 29.9889
lwrist -19.061
lhand -9.59511 -31.5986
lfingers 7.12502
lthumb 16.3735 -2.26969
rfemur -3.6259 25.5648 22.3619
rtibia 27.9671
rfoot -24.0654 -27.359
rtoes -0.424639
lfemur 0.801264 -23.6561 -27.8875
ltibia 28.5329
lfoot -31.5981 24.9355
ltoes -12.2428
8
root 6.8475 15.0917 41.1998 175.95 16.2077 -179.619
lowerback 2.85981 -1.3958 -2.6233
upperback -8.82126 -1.42111 1.26281
thorax -10.9121 -0.156912 2.95108
lowerneck -13.953 -4.31819 -5.18741
upperneck 32.7875 -5.86003 9.5087
head 13.9555 -0.984177 4.04503
rclavicle -2.0276e-014 -9.74045e-015
rhumerus 29.2633 20.3422 -44.2258
rradius 26.4791
rwrist 24.0781
rhand -6.10227 -54.1661
rfingers 7.12502
rthumb -160.266 96.8156
lclavicle -2.0276e-014 -9.74045e-015
lhumerus 22.0325 -18.5469 51.1461
lradius 29.5985
lwrist -19.5667
lhand -9.64129 -31.9971
lfingers 7.12502
lthumb 16.3291 -2.66456
rfemur -3.53594 25.6098 22.2702
rtibia 28.0395
rfoot -24.2709 -27.231
rtoes 0.0525455
lfemur 0.962064 -23.4821 -28.0542
ltibia 28.4613
lfoot -31.5153 24.8912
ltoes -12.5939
9
root 6.84365 15.0924 41.1973 175.963 16.3045 -179.642
lowerback 2.70303 -1.38984 -2.74635
upperback -8.83262 -1.41204 1.28485
thorax -10.8277 -0.140351 3.03844
lowerneck -14.261 -4.33101 -5.28786
upperneck 32.6552 -5.87206 9.43904
head 13.9673 -1.03109 4.01922
rclavicle -2.00773e-014 2.38542e-015
rhumerus 29.3979 20.9798 -43.7212
rradius 26.5968
rwrist 23.2666
rhand -7.17583 -56.5178
rfingers 7.12502
rthumb -161.298 94.3612
lclavicle -2.00773e-014 2.38542e-015
lhumerus 21.8628 -17.8387 51.8845
lradius 29.3946
lwrist -20.3696
lhand -9.57988 -32.2773
lfingers 7.12502
lthumb 16.3882 -2.94967
rfemur -3.62001 25.4303 22.1637
rtibia 28.0519
rfoot -24.255 -26.9471
rtoes 0.133681
lfemur 0.947677 -23.4475 -28.0927
ltibia 28.4568
lfoot -31.5127 24.985
ltoes -12.3767
10
root 6.83718 15.0911 41.1924 175.978 16.443 -179.556
lowerback 2.5702 -1.38513 -2.64659
upperback -8.84879 -1.388 1.29012
thorax -10.7687 -0.135964 2.9818
lowerneck -14.4547 -4.32453 -5.51659
upperneck 32.44 -5.90483 9.6735
head 13.9368 -1.0622 4.13604
rclavicle -5.22804e-014 -1.88845e-014
rhumerus 29.4327 21.6938 -43.2313
rradius 26.8176
rwrist 22.363
rhand -6.6654 -55.6649
rfingers 7.12502
rthumb -160.807 95.2622
lclavicle -5.22804e-014 -1.88845e-014
lhumerus 21.6933 -17.1753 52.5289
lradius 29.2167
lwrist -21.2295
lhand -9.60814 -32.3722
lfingers 7.12502
lthumb 16.361 -3.04234
rfemur -3.64616 25.2593 22.1765
rtibia 28.0082
rfoot -23.9756 -26.7928
rtoes -0.424109
lfemur 0.966663 -23.5226 -28.0875
ltibia 28.5118
lfoot -31.5257 25.1868
ltoes -12.3165
11
root 6.83058 15.0857 41.1882 175.89 16.6048 -179.403
lowerback 2.59672 -1.36126 -2.53649
upperback -8.84506 -1.34652 1.31126
thorax -10.7851 -0.124393 2.93878
lowerneck -14.6909 -4.32018 -5.67309
upperneck 32.3715 -5.92571 9.83174
head 13.9742 -1.07745 4.22051
rclavicle 2.46493e-014 4.57205e-015
rhumerus 29.3687 21.8382 -43.3562
rradius 26.8706
rwrist 22.3109
rhand -5.36957 -53.1054
rfingers 7.12502
rthumb -159.562 97.9502
lclavicle 2.46493e-014 4.57205e-015
lhumerus 21.511 -16.2057 53.3613
lradius 29.0222
lwrist -22.734
lhand -9.65593 -32.593
lfingers 7.12502
lthumb 16.315 -3.2593
rfemur -3.4957 25.242 22.3581
rtibia 27.926
rfoot -23.7343 -26.6225
rtoes -0.418868
lfemur 1.13099 -23.6656 -28.1021
ltibia 28.6102
lfoot -31.6935 25.3701
ltoes -12.3851
12
root 6.82555 15.0827 41.1879 175.861 16.7593 -179.228
lowerback 2.63269 -1.34594 -2.4716
upperback -8.87651 -1.31244 1.36629
thorax -10.8453 -0.107191 2.95893
lowerneck -14.8579 -4.27032 -5.76618
upperneck 32.2709 -5.84254 9.80651
head 13.9597 -1.07017 4.231
rclavicle 1.03368e-014 -5.96354e-016
rhumerus 29.2661 21.231 -44.2516
rradius 26.5739
rwrist 23.3381
rhand -5.10494 -51.8283
rfingers 7.12502
rthumb -159.307 99.2548
lclavicle 1.03368e-014 -5.96354e-016
lhumerus 21.3444 -14.9444 54.4204
lradius 28.7862
lwrist -24.5947
lhand -9.40562 -32.9238
lfingers 7.12502
lthumb 16.556 -3.61006
rfemur -3.39821 25.3049 22.5596
rtibia 27.8435
rfoot -23.6907 -26.4172
rtoes -0.140893
lfemur 1.21176 -23.7789 -28.0355
ltibia 28.7141
lfoot -31.87 25.5354
ltoes -12.3655
13
root 6.82042 15.0829 41.1904 175.853 16.878 -179.193
lowerback 2.64313 -1.3731 -2.55734
upperback -8.92484 -1.34489 1.42771
thorax -10.9017 -0.107721 3.07771
lowerneck -15.0613 -4.17166 -5.77189
upperneck 32.1219 -5.66107 9.57827
head 13.9092 -1.04584 4.1524
rclavicle 7.15625e-015 -4.77083e-015
rhumerus 29.491 22.0197 -43.7458
rradius 26.7105
rwrist 22.589
rhand -5.30127 -51.6237
rfingers 7.12502
rthumb -159.496 99.439
lclavicle 7.15625e-015 -4.77083e-015
lhumerus 21.2393 -14.3748 55.0054
lradius 28.5838
lwrist -24.9706
lhand -9.30977 -32.8923
lfingers 7.12502
lthumb 16.6482 -3.58629
rfemur -3.37251 25.394 22.59
rtibia 27.7747
rfoot -23.7292 -26.5325
rtoes -0.979101
lfemur 1.20128 -23.8353 -28.0556
ltibia 28.7983
lfoot -31.9114 25.6366
ltoes -12.3558
14
root 6.81432 15.0823 41.1923 175.802 17.0033 -179.188
lowerback 2.62734 -1.37815 -2.38905
upperback -8.92586 -1.35424 1.26548
thorax -10.8984 -0.136658 2.80938
lowerneck -15.2929 -4.27964 -5.7342
upperneck 32.0787 -5.83159 9.48941
head 13.9553 -1.13577 4.07546
rclavicle -1.73937e-015 -6.75868e-015
rhumerus 29.4749 22.1186 -44.1213
rradius 26.6644
rwrist 22.5124
rhand -6.49017 -51.2006
rfingers 7.12502
rthumb -160.639 99.7432
lclavicle -1.73937e-015 -6.75868e-015
lhumerus 21.344 -14.5614 54.8398
lradius 28.4865
lwrist -24.5403
lhand -9.39094 -32.8273
lfingers 7.12502
lthumb 16.5701 -3.51469
rfemur -3.32778 25.4218 22.5926
rtibia 27.7384
rfoot -23.6362 -26.6389
rtoes -1.6056
lfemur 1.25412 -23.8207 -28.1151
ltibia 28.8368
lfoot -31.9539 25.6474
ltoes -12.4383
